<svg xmlns="http://www.w3.org/2000/svg" width="372" height="14" viewBox="0 0 372 14" fill="none">
    <path fill-rule="evenodd" clip-rule="evenodd" d="M241.293 0.749689C251.146 0.519315 262.25 1.24351 272.712 1.07666C272.662 1.18875 272.607 1.302 272.557 1.41319C273.372 1.45175 273.393 1.09271 274.168 1.11225C275.279 1.02913 274.049 1.66347 275.473 1.48516C275.901 1.45637 275.589 1.28848 275.285 1.25256C275.886 1.24071 277.06 1.2795 277.467 1.64905C278.472 1.62784 276.892 1.19297 278.201 1.32545C282.719 1.81298 288.582 1.13434 293.454 2.16115C302.42 2.24376 312.461 2.63867 322.517 3.11132C324.689 3.21422 326.582 3.42066 328.299 3.36918C329.853 3.32226 332.631 3.56102 334.372 3.63441C336.306 3.71545 338.237 4.10627 339.759 4.10933C338.845 4.10681 344.082 3.75544 343.203 4.30917C347.134 3.9859 351.506 4.73831 355.399 4.72651C356.049 4.68844 355.886 4.90029 355.827 5.07766C356.882 4.6494 358.354 5.22398 359.192 4.82115C359.206 5.52916 361.274 4.61443 361.609 5.33461C363.461 4.81797 365.294 5.5242 367.339 5.7056C368.784 5.83314 371.458 5.5565 371.451 6.37697C369.831 6.36053 367.415 6.73106 362.703 6.15924C363.376 6.44967 360.045 6.46339 360.131 5.98048C358.555 6.6879 355.353 5.72522 353.986 6.51074C353.05 6.38505 354.067 6.25824 353.613 6.04543C349.657 6.31239 347.457 5.69673 343.745 5.6875C345.518 6.50358 348.176 6.70544 351.257 6.66954C352.236 6.70171 351.188 6.92781 351.923 7.14119C353.004 7.05314 352.551 6.95991 353.004 6.71341C356.966 7.4343 364.706 7.31723 368.87 8.13207C365.294 7.97816 360.052 8.29868 357.308 7.61714C352.351 7.6987 344.217 7.48673 338.113 7.0249C337.708 6.99405 336.702 7.0902 337.635 6.78493C336.293 7.06323 334.985 6.86857 333.21 6.78868C304.86 5.51873 271.51 5.21834 244.339 5.03084C213.889 4.82149 185.1 5.00464 154.322 5.74788C106.474 6.90824 60.9049 10.2439 17.2562 13.148C13.2929 13.4116 9.37282 13.8138 5.41395 13.8764C4.40802 13.7853 3.67643 13.2466 4.71267 12.8357C3.21141 12.7311 2.41308 12.9785 0.867408 12.8542C0.426129 12.5713 0.355566 12.1748 0.170891 11.8124C1.60909 11.2854 3.3368 10.9019 5.40857 10.6911C6.05478 10.4898 5.57061 10.4099 5.66747 10.1284C16.5806 8.38628 28.9417 6.93959 41.5812 6.47167C62.1613 5.70946 83.6107 4.04608 103.846 3.24364C108.715 3.05048 112.926 3.09769 118.103 3.02974C124.536 2.94533 132.986 2.40542 140.74 2.56985C145.539 2.67061 151.39 2.18163 157.195 2.0694C184.892 1.53095 216.882 0.996317 244.055 1.16001C243.854 0.369173 242.04 1.06018 241.293 0.749689ZM343.21 5.56181C342.725 5.54964 342.241 5.53736 341.756 5.52519C341.257 5.97032 343.284 6.02114 343.21 5.56181Z" fill="#3996D2"/>
</svg>