<svg width="86" height="16" viewBox="0 0 86 16" fill="none" xmlns="http://www.w3.org/2000/svg">
<path d="M7.55714 0.844969C7.74435 0.487781 8.25565 0.487783 8.44286 0.844971L10.3209 4.42817C10.3933 4.56634 10.526 4.6628 10.6798 4.68897L14.668 5.36779C15.0655 5.43546 15.2235 5.92174 14.9417 6.21016L12.1142 9.10352C12.0052 9.21509 11.9545 9.37115 11.9771 9.5255L12.5639 13.5282C12.6224 13.9272 12.2087 14.2278 11.8473 14.0488L8.22185 12.2538C8.08205 12.1846 7.91795 12.1846 7.77815 12.2538L4.15266 14.0488C3.79126 14.2278 3.3776 13.9272 3.4361 13.5282L4.02291 9.5255C4.04554 9.37115 3.99483 9.21509 3.8858 9.10352L1.05831 6.21016C0.776454 5.92174 0.934458 5.43546 1.33201 5.36779L5.32017 4.68897C5.47396 4.6628 5.60672 4.56634 5.67914 4.42817L7.55714 0.844969Z" fill="#FFC547"/>
<path d="M42.4634 0.844969C42.6506 0.487781 43.1619 0.487783 43.3491 0.844971L45.2271 4.42817C45.2995 4.56634 45.4323 4.6628 45.5861 4.68897L49.5742 5.36779C49.9718 5.43546 50.1298 5.92174 49.8479 6.21016L47.0204 9.10352C46.9114 9.21509 46.8607 9.37115 46.8833 9.5255L47.4702 13.5282C47.5286 13.9272 47.115 14.2278 46.7536 14.0488L43.1281 12.2538C42.9883 12.1846 42.8242 12.1846 42.6844 12.2538L39.0589 14.0488C38.6975 14.2278 38.2839 13.9272 38.3423 13.5282L38.9292 9.5255C38.9518 9.37115 38.9011 9.21509 38.7921 9.10352L35.9646 6.21016C35.6827 5.92174 35.8407 5.43546 36.2383 5.36779L40.2264 4.68897C40.3802 4.6628 40.513 4.56634 40.5854 4.42817L42.4634 0.844969Z" fill="#FFC547"/>
<path d="M25.0103 0.844969C25.1975 0.487781 25.7088 0.487783 25.896 0.844971L27.774 4.42817C27.8464 4.56634 27.9792 4.6628 28.133 4.68897L32.1211 5.36779C32.5187 5.43546 32.6767 5.92174 32.3948 6.21016L29.5673 9.10352C29.4583 9.21509 29.4076 9.37115 29.4302 9.5255L30.017 13.5282C30.0755 13.9272 29.6619 14.2278 29.3005 14.0488L25.675 12.2538C25.5352 12.1846 25.3711 12.1846 25.2313 12.2538L21.6058 14.0488C21.2444 14.2278 20.8307 13.9272 20.8892 13.5282L21.476 9.5255C21.4987 9.37115 21.448 9.21509 21.3389 9.10352L18.5114 6.21016C18.2296 5.92174 18.3876 5.43546 18.7851 5.36779L22.7733 4.68897C22.9271 4.6628 23.0598 4.56634 23.1323 4.42817L25.0103 0.844969Z" fill="#FFC547"/>
<path d="M59.9243 0.844969C60.1115 0.487781 60.6228 0.487783 60.81 0.844971L62.6881 4.42817C62.7605 4.56634 62.8932 4.6628 63.047 4.68897L67.0352 5.36779C67.4327 5.43546 67.5907 5.92174 67.3089 6.21016L64.4814 9.10352C64.3724 9.21509 64.3216 9.37115 64.3443 9.5255L64.9311 13.5282C64.9896 13.9272 64.5759 14.2278 64.2145 14.0488L60.589 12.2538C60.4492 12.1846 60.2851 12.1846 60.1453 12.2538L56.5198 14.0488C56.1584 14.2278 55.7448 13.9272 55.8033 13.5282L56.3901 9.5255C56.4127 9.37115 56.362 9.21509 56.253 9.10352L53.4255 6.21016C53.1436 5.92174 53.3016 5.43546 53.6992 5.36779L57.6874 4.68897C57.8411 4.6628 57.9739 4.56634 58.0463 4.42817L59.9243 0.844969Z" fill="#FFC547"/>
<path d="M77.3775 0.844969C77.5647 0.487781 78.076 0.487783 78.2632 0.844971L80.1412 4.42817C80.2136 4.56634 80.3464 4.6628 80.5001 4.68897L84.4883 5.36779C84.8859 5.43546 85.0439 5.92174 84.762 6.21016L81.9345 9.10352C81.8255 9.21509 81.7748 9.37115 81.7974 9.5255L82.3842 13.5282C82.4427 13.9272 82.0291 14.2278 81.6677 14.0488L78.0422 12.2538C77.9024 12.1846 77.7383 12.1846 77.5985 12.2538L73.973 14.0488C73.6116 14.2278 73.1979 13.9272 73.2564 13.5282L73.8432 9.5255C73.8659 9.37115 73.8151 9.21509 73.7061 9.10352L70.8786 6.21016C70.5968 5.92174 70.7548 5.43546 71.1523 5.36779L75.1405 4.68897C75.2943 4.6628 75.427 4.56634 75.4994 4.42817L77.3775 0.844969Z" fill="#828DF7" fill-opacity="0.2"/>
<mask id="mask0_1_747" style="mask-type:alpha" maskUnits="userSpaceOnUse" x="70" y="0" width="15" height="15">
<path d="M77.3775 0.844969C77.5647 0.487781 78.076 0.487783 78.2632 0.844971L80.1412 4.42817C80.2136 4.56634 80.3464 4.6628 80.5001 4.68897L84.4883 5.36779C84.8859 5.43546 85.0439 5.92174 84.762 6.21016L81.9345 9.10352C81.8255 9.21509 81.7748 9.37115 81.7974 9.5255L82.3842 13.5282C82.4427 13.9272 82.0291 14.2278 81.6677 14.0488L78.0422 12.2538C77.9024 12.1846 77.7383 12.1846 77.5985 12.2538L73.973 14.0488C73.6116 14.2278 73.1979 13.9272 73.2564 13.5282L73.8432 9.5255C73.8659 9.37115 73.8151 9.21509 73.7061 9.10352L70.8786 6.21016C70.5968 5.92174 70.7548 5.43546 71.1523 5.36779L75.1405 4.68897C75.2943 4.6628 75.427 4.56634 75.4994 4.42817L77.3775 0.844969Z" fill="#4C5CF4"/>
</mask>
<g mask="url(#mask0_1_747)">
<rect x="70" width="11" height="16" fill="#FFC547"/>
</g>
</svg>
