<svg width="86" height="17" viewBox="0 0 86 17" fill="none" xmlns="http://www.w3.org/2000/svg">
<path d="M7.55714 1.84497C7.74435 1.48778 8.25565 1.48778 8.44286 1.84497L10.3209 5.42817C10.3933 5.56634 10.526 5.6628 10.6798 5.68897L14.668 6.36779C15.0655 6.43546 15.2235 6.92174 14.9417 7.21016L12.1142 10.1035C12.0052 10.2151 11.9545 10.3712 11.9771 10.5255L12.5639 14.5282C12.6224 14.9272 12.2087 15.2278 11.8473 15.0488L8.22185 13.2538C8.08205 13.1846 7.91795 13.1846 7.77815 13.2538L4.15266 15.0488C3.79126 15.2278 3.3776 14.9272 3.4361 14.5282L4.02291 10.5255C4.04554 10.3712 3.99483 10.2151 3.8858 10.1035L1.05831 7.21016C0.776454 6.92174 0.934458 6.43546 1.33201 6.36779L5.32017 5.68897C5.47396 5.6628 5.60672 5.56634 5.67914 5.42817L7.55714 1.84497Z" fill="#FFC547"/>
<path d="M42.4634 1.84497C42.6506 1.48778 43.1619 1.48778 43.3491 1.84497L45.2271 5.42817C45.2995 5.56634 45.4323 5.6628 45.5861 5.68897L49.5742 6.36779C49.9718 6.43546 50.1298 6.92174 49.8479 7.21016L47.0204 10.1035C46.9114 10.2151 46.8607 10.3712 46.8833 10.5255L47.4702 14.5282C47.5286 14.9272 47.115 15.2278 46.7536 15.0488L43.1281 13.2538C42.9883 13.1846 42.8242 13.1846 42.6844 13.2538L39.0589 15.0488C38.6975 15.2278 38.2839 14.9272 38.3423 14.5282L38.9292 10.5255C38.9518 10.3712 38.9011 10.2151 38.7921 10.1035L35.9646 7.21016C35.6827 6.92174 35.8407 6.43546 36.2383 6.36779L40.2264 5.68897C40.3802 5.6628 40.513 5.56634 40.5854 5.42817L42.4634 1.84497Z" fill="#FFC547"/>
<path d="M25.0103 1.84497C25.1975 1.48778 25.7088 1.48778 25.896 1.84497L27.774 5.42817C27.8464 5.56634 27.9792 5.6628 28.133 5.68897L32.1211 6.36779C32.5187 6.43546 32.6767 6.92174 32.3948 7.21016L29.5673 10.1035C29.4583 10.2151 29.4076 10.3712 29.4302 10.5255L30.017 14.5282C30.0755 14.9272 29.6619 15.2278 29.3005 15.0488L25.675 13.2538C25.5352 13.1846 25.3711 13.1846 25.2313 13.2538L21.6058 15.0488C21.2444 15.2278 20.8307 14.9272 20.8892 14.5282L21.476 10.5255C21.4987 10.3712 21.448 10.2151 21.3389 10.1035L18.5114 7.21016C18.2296 6.92174 18.3876 6.43546 18.7851 6.36779L22.7733 5.68897C22.9271 5.6628 23.0598 5.56634 23.1323 5.42817L25.0103 1.84497Z" fill="#FFC547"/>
<path d="M59.9243 1.84497C60.1115 1.48778 60.6228 1.48778 60.81 1.84497L62.6881 5.42817C62.7605 5.56634 62.8932 5.6628 63.047 5.68897L67.0352 6.36779C67.4327 6.43546 67.5907 6.92174 67.3089 7.21016L64.4814 10.1035C64.3724 10.2151 64.3216 10.3712 64.3443 10.5255L64.9311 14.5282C64.9896 14.9272 64.5759 15.2278 64.2145 15.0488L60.589 13.2538C60.4492 13.1846 60.2851 13.1846 60.1453 13.2538L56.5198 15.0488C56.1584 15.2278 55.7448 14.9272 55.8033 14.5282L56.3901 10.5255C56.4127 10.3712 56.362 10.2151 56.253 10.1035L53.4255 7.21016C53.1436 6.92174 53.3016 6.43546 53.6992 6.36779L57.6874 5.68897C57.8411 5.6628 57.9739 5.56634 58.0463 5.42817L59.9243 1.84497Z" fill="#FFC547"/>
<path d="M77.3775 1.84497C77.5647 1.48778 78.076 1.48778 78.2632 1.84497L80.1412 5.42817C80.2136 5.56634 80.3464 5.6628 80.5001 5.68897L84.4883 6.36779C84.8859 6.43546 85.0439 6.92174 84.762 7.21016L81.9345 10.1035C81.8255 10.2151 81.7748 10.3712 81.7974 10.5255L82.3842 14.5282C82.4427 14.9272 82.0291 15.2278 81.6677 15.0488L78.0422 13.2538C77.9024 13.1846 77.7383 13.1846 77.5985 13.2538L73.973 15.0488C73.6116 15.2278 73.1979 14.9272 73.2564 14.5282L73.8432 10.5255C73.8659 10.3712 73.8151 10.2151 73.7061 10.1035L70.8786 7.21016C70.5968 6.92174 70.7548 6.43546 71.1523 6.36779L75.1405 5.68897C75.2943 5.6628 75.427 5.56634 75.4994 5.42817L77.3775 1.84497Z" fill="#FFC547" fill-opacity="0.2"/>
<mask id="mask0_1_770" style="mask-type:alpha" maskUnits="userSpaceOnUse" x="70" y="0" width="8" height="16">
<rect x="70" width="8" height="16" fill="white"/>
</mask>
<g mask="url(#mask0_1_770)">
<path d="M77.3775 1.84497C77.5647 1.48778 78.076 1.48778 78.2632 1.84497L80.1412 5.42817C80.2136 5.56634 80.3464 5.6628 80.5001 5.68897L84.4883 6.36779C84.8859 6.43546 85.0439 6.92174 84.762 7.21016L81.9345 10.1035C81.8255 10.2151 81.7748 10.3712 81.7974 10.5255L82.3842 14.5282C82.4427 14.9272 82.0291 15.2278 81.6677 15.0488L78.0422 13.2538C77.9024 13.1846 77.7383 13.1846 77.5985 13.2538L73.973 15.0488C73.6116 15.2278 73.1979 14.9272 73.2564 14.5282L73.8432 10.5255C73.8659 10.3712 73.8151 10.2151 73.7061 10.1035L70.8786 7.21016C70.5968 6.92174 70.7548 6.43546 71.1523 6.36779L75.1405 5.68897C75.2943 5.6628 75.427 5.56634 75.4994 5.42817L77.3775 1.84497Z" fill="#FFC547"/>
</g>
</svg>
